<svg width="50" height="50" viewBox="0 0 50 50" fill="none" xmlns="http://www.w3.org/2000/svg">
<path fill-rule="evenodd" clip-rule="evenodd" d="M22.7939 0.0982041C22.3754 0.285567 22.2117 0.566335 22.2117 1.09803C22.2117 2.22276 23.8205 2.41869 24.1735 1.33679C24.456 0.471273 23.626 -0.274035 22.7939 0.0982041ZM25.1627 0.88828C25.2542 2.28079 26.6852 2.62567 26.6948 1.25748C26.6961 1.04939 26.7401 0.692625 26.7923 0.464639C26.883 0.0700157 26.8745 0.0501187 26.6125 0.0501187C26.385 0.0501187 26.3601 0.0777541 26.4686 0.210124C26.7554 0.559427 26.471 1.73805 26.0692 1.86489C25.5323 2.03429 25.2324 1.28981 25.4823 0.408542C25.575 0.0824526 25.5624 0.0501187 25.3457 0.0501187C25.1171 0.0501187 25.1097 0.0835581 25.1627 0.88828ZM23.6451 0.369854C23.9803 0.644543 24.0082 1.42882 23.6908 1.66371C23.1386 2.07215 22.5395 1.71594 22.5395 0.978921C22.5395 0.244667 23.1091 -0.0689854 23.6451 0.369854ZM27.8124 0.899335C27.7965 1.32988 27.7162 1.74247 27.6187 1.89308C27.4578 2.14124 27.4627 2.15036 27.7577 2.15036C28.049 2.15036 28.0618 2.1288 28.0222 1.7082C27.9681 1.13616 28.1511 1.1345 28.4385 1.70461C28.6298 2.08376 28.9344 2.37143 29.1442 2.37143C29.1786 2.37143 29.0554 2.16003 28.8704 1.90192C28.5363 1.43517 28.5358 1.43158 28.7606 1.28042C29.2895 0.925311 29.0054 0.372064 28.2219 0.23168L27.8394 0.163146L27.8124 0.899335ZM21.0365 0.344705C20.9608 0.37538 20.9233 0.440322 20.9531 0.488959C20.9826 0.537596 20.9507 0.740986 20.8818 0.940785L20.7567 1.30391L20.5073 0.987489C20.3701 0.813391 20.2824 0.630725 20.3122 0.581535C20.3742 0.480116 20.121 0.462429 19.8901 0.551965C19.7798 0.594799 19.8735 0.750936 20.2213 1.10245C20.6458 1.53217 20.7007 1.64188 20.6614 1.98234C20.6196 2.34546 20.6368 2.37143 20.9223 2.37143C21.0905 2.37143 21.2282 2.32169 21.2282 2.26089C21.2282 2.2001 21.1829 2.15036 21.1277 2.15036C20.7717 2.15036 21.014 0.748172 21.4288 0.409371C21.6104 0.260972 21.3476 0.217586 21.0365 0.344705ZM28.5869 0.545609C28.8218 0.783267 28.6912 1.15551 28.373 1.15551C28.1063 1.15551 28.035 0.935811 28.179 0.556663C28.2618 0.338349 28.3787 0.335032 28.5869 0.545609ZM31.3436 0.946313C31.4442 1.11102 31.0677 2.39299 30.8705 2.55742C30.7046 2.69559 31.5818 3.03467 32.105 3.03467C32.7997 3.03467 33.2084 1.87732 32.6872 1.38598C32.3356 1.05492 31.1783 0.676046 31.3436 0.946313ZM17.267 1.24422C16.8405 1.3998 16.5294 1.57776 16.5294 1.66592C16.5294 1.83587 16.7091 1.87567 16.7662 1.71843C16.7862 1.66316 16.8954 1.60098 17.0088 1.58025C17.2787 1.53079 17.791 2.92579 17.5839 3.14659C17.4864 3.25049 17.5194 3.26265 17.7314 3.20047C18.0409 3.10956 18.2819 2.92413 18.0901 2.92413C18.0229 2.92413 17.8595 2.595 17.727 2.19264C17.4721 1.41749 17.5331 1.20193 17.9773 1.30943C18.1628 1.35448 18.2567 1.10272 18.0865 1.0165C18.0415 0.993844 17.6727 1.09609 17.267 1.24422ZM32.52 1.51531C32.9609 2.04341 32.4834 2.87217 31.7922 2.77849C31.2122 2.69973 31.1923 2.54166 31.619 1.40643C31.7441 1.07316 32.1965 1.12787 32.52 1.51531ZM15.1981 3.02472C15.179 3.63848 15.188 4.13701 15.2181 4.13259C15.3869 4.10772 15.6879 3.93335 15.5732 3.92671C15.2937 3.91096 15.4257 3.37761 15.7511 3.20738C16.0658 3.04296 16.5613 3.2972 16.3474 3.5133C16.2026 3.66004 16.6018 3.58349 16.8091 3.42515C17.0096 3.2715 17.0102 3.26265 16.8203 3.25934C16.7099 3.2574 16.3078 2.95259 15.9264 2.58229L15.2331 1.90883L15.1981 3.02472ZM33.9094 2.34933C33.4546 2.80944 33.4494 3.36545 33.8958 3.81701C34.8241 4.75603 36.2302 3.46521 35.3521 2.47976C34.8945 1.96631 34.3378 1.91601 33.9094 2.34933ZM35.1063 2.48197C35.5578 2.93877 35.1972 3.92091 34.5793 3.91732C33.822 3.9129 33.5789 2.97801 34.2053 2.47949C34.5547 2.20148 34.8298 2.20231 35.1063 2.48197ZM15.8737 2.92827C15.8737 2.97276 15.7754 3.03494 15.6552 3.06672C15.4719 3.11508 15.4366 3.07004 15.4366 2.78623C15.4366 2.45461 15.4413 2.45185 15.6552 2.64778C15.7754 2.75777 15.8737 2.88406 15.8737 2.92827ZM21.8839 3.21098C7.31441 5.35267 -0.907239 21.3089 5.69821 34.6231C8.85465 40.9848 14.6181 45.1895 21.8566 46.4109C22.9455 46.5947 21.8541 45.6601 20.7127 45.4315C7.67365 42.8187 0.370742 27.9833 6.1304 15.8094C12.735 1.85025 31.5537 -0.456978 41.0692 11.5257C50.7857 23.7618 44.7873 41.4154 29.5703 45.3666C29.0412 45.504 28.4525 46.2553 28.8737 46.2553C29.257 46.2553 31.5952 45.6009 32.5634 45.2226C46.6316 39.7266 51.0376 21.9943 41.1924 10.496C36.4438 4.9503 29.0442 2.15837 21.8839 3.21098ZM36.6088 3.48567C36.0881 3.79241 35.9685 4.52998 36.3627 5.00392C37.0276 5.80311 38.166 5.36068 38.166 4.30282C38.166 3.64429 37.2 3.13747 36.6088 3.48567ZM11.6068 3.97148C11.2792 4.18261 11.0729 4.35671 11.1489 4.35837C11.3013 4.36141 12.0854 5.54031 12.0854 5.76636C12.0854 5.95372 12.1638 5.94598 12.4892 5.72601C13.4464 5.07853 13.6226 4.49875 13.041 3.91041C12.6258 3.49064 12.3337 3.50307 11.6068 3.97148ZM37.6141 3.69486C38.2124 4.01901 37.7565 5.24544 37.038 5.24544C36.7123 5.24544 36.3829 4.85248 36.3935 4.47665C36.4124 3.80927 37.0596 3.39475 37.6141 3.69486ZM12.8225 4.13149C13.1814 4.49461 13.2205 4.75078 12.9722 5.10948C12.579 5.6771 12.4119 5.64173 11.9428 4.89144L11.5092 4.19754L11.8611 4.00769C12.3455 3.74626 12.4556 3.76035 12.8225 4.13149ZM38.9574 4.86325C38.7394 5.01773 38.7233 5.09649 38.7859 5.70224C38.8539 6.3605 38.8509 6.37017 38.5924 6.33314C38.3865 6.30357 38.3307 6.23007 38.3343 5.99158C38.3392 5.64034 38.2214 5.59723 38.0652 5.89292C37.8275 6.34171 38.7107 6.80791 39.0394 6.40693C39.1325 6.29335 39.1519 6.05514 39.1008 5.64366C39.0525 5.25042 39.0683 5.01967 39.1478 4.9702C39.323 4.86049 39.6079 5.13988 39.5311 5.34603C39.4787 5.48642 39.5052 5.48117 39.6625 5.32116C40.0177 4.95998 39.3932 4.55457 38.9574 4.86325ZM9.72968 5.41788C9.09752 5.7647 9.00326 6.59927 9.54418 7.05939C10.5536 7.91882 11.7895 6.5136 10.8555 5.56849C10.5034 5.21256 10.1821 5.16945 9.72968 5.41788ZM10.6369 5.78957C11.035 6.19221 11.0683 6.70096 10.7134 6.95244C9.94058 7.50016 8.97868 6.36161 9.64499 5.6876C9.94959 5.37947 10.2632 5.41153 10.6369 5.78957ZM40.4244 5.65084C40.3176 5.7589 40.3354 5.93189 40.4463 5.86253C40.4982 5.82992 40.622 5.89375 40.7209 6.00457C40.9178 6.22482 40.2564 7.155 39.7748 7.33546C39.5762 7.40979 39.5808 7.42693 39.8477 7.60379C40.0308 7.7251 40.133 7.74666 40.133 7.66403C40.133 7.28323 41.1399 6.33812 41.3454 6.52604C41.4571 6.62828 41.5221 6.75513 41.4899 6.80763C41.4577 6.86041 41.4806 6.90352 41.5407 6.90352C41.8194 6.90352 41.7467 6.65343 41.3721 6.32485C41.1459 6.12616 40.873 5.8769 40.7654 5.7705C40.5466 5.55385 40.5269 5.54694 40.4244 5.65084ZM7.35866 7.46479C6.67979 8.15151 7.14448 9.22484 8.12059 9.22484C8.42547 9.22484 9.09861 8.54282 9.09861 8.23386C9.09861 7.26858 8.02279 6.79299 7.35866 7.46479ZM25.0004 7.37746C24.5478 7.63667 24.0743 8.33141 24.0713 8.74123C24.0697 8.95706 23.9962 8.98055 23.1679 9.03167C18.157 9.34035 12.5954 15.3575 12.5954 20.4699V21.4946H25.4354H38.2753V20.4699C38.2753 15.7115 33.8608 10.5096 28.6759 9.15852C27.9514 8.96977 27.9129 8.94324 27.8569 8.59421C27.6638 7.38989 26.1235 6.73385 25.0004 7.37746ZM42.2092 7.35508C42.2092 7.52227 41.2757 8.50136 41.0451 8.57598C40.9722 8.59974 41.0722 8.79512 41.2836 9.04107C41.5637 9.36716 41.7005 9.44868 41.874 9.39314C42.1502 9.30443 42.1781 9.1143 41.9043 9.1867C41.515 9.28978 41.2358 8.79954 41.5412 8.54945C41.8204 8.32091 42.0999 8.42343 42.0999 8.7545C42.0999 8.88935 42.1305 8.89461 42.2638 8.78269C42.4379 8.6365 42.4947 8.39608 42.3308 8.4986C42.0573 8.66966 41.9639 8.21783 42.2166 7.94563L42.4745 7.6679L42.6611 7.91827C42.7638 8.05589 42.8241 8.20733 42.7952 8.25459C42.7089 8.39608 42.8291 8.35158 42.958 8.19434C43.0498 8.08242 42.9766 7.94839 42.6436 7.61926C42.3756 7.35452 42.2092 7.25338 42.2092 7.35508ZM8.48748 7.59439C8.91475 7.98073 8.95874 8.3817 8.61178 8.73239C8.26511 9.08335 7.86871 9.03886 7.48679 8.60665C6.81583 7.84697 7.73648 6.91568 8.48748 7.59439ZM26.4923 8.52347C26.8783 8.87692 26.7434 9.00376 25.9817 9.00376C25.2291 9.00376 25.1228 8.91091 25.4523 8.54254C25.6777 8.29079 26.2271 8.28056 26.4923 8.52347ZM43.6298 8.93495C43.6298 9.10214 42.5389 9.99861 42.3357 9.99861C42.1447 9.99861 42.1835 10.1619 42.4277 10.3855C42.6045 10.5474 42.6463 10.5543 42.6463 10.422C42.6463 10.3319 42.7692 10.1415 42.9195 9.99861C43.1411 9.78803 43.1927 9.77311 43.1927 9.92013C43.1927 10.1644 43.5896 10.3645 43.9114 10.2827C44.3261 10.1774 44.3666 9.74216 44.0101 9.22152C43.6831 8.74427 43.6298 8.7042 43.6298 8.93495ZM5.61435 9.50008C5.42066 9.77311 5.33105 9.96959 5.41519 9.93671C5.59987 9.86514 6.83441 10.8539 6.74453 11.0009C6.70984 11.0576 6.72186 11.104 6.77103 11.104C6.88468 11.104 7.16224 10.6627 7.0505 10.6594C6.61695 10.6466 6.34513 9.88807 6.77431 9.88807C6.90899 9.88807 6.91445 9.85712 6.80381 9.72226C6.66121 9.54844 6.42107 9.48765 6.52079 9.65069C6.71038 9.9613 6.29295 10.1296 5.98916 9.86514L5.68073 9.5968L5.96539 9.3702C6.217 9.16985 6.2506 9.00376 6.03916 9.00376C5.99927 9.00376 5.80804 9.22705 5.61435 9.50008ZM44.0005 9.51031C44.1581 9.92593 43.8063 10.2089 43.4552 9.94915C43.255 9.80102 43.255 9.79218 43.4569 9.56641C43.7033 9.29116 43.9093 9.26988 44.0005 9.51031ZM3.65421 11.5738C-5.12365 26.3542 2.63986 45.2492 19.176 49.3507C20.754 49.742 22.9892 50.0374 24.0306 49.9924L24.8111 49.9584L23.9986 48.8328L23.1859 47.707L22.5622 47.6349C6.19842 45.7399 -3.00397 27.2012 5.42011 13.1012C5.76269 12.528 6.00528 12.0259 5.95884 11.9855C5.54605 11.6257 4.30741 10.6618 4.25851 10.6618C4.22408 10.6618 3.95226 11.0722 3.65421 11.5738ZM45.0184 11.6141C44.1038 12.2044 44.065 12.2453 44.2081 12.4705C52.8117 25.9988 44.9848 44.1899 29.2062 47.3378L27.6233 47.6536L26.7838 48.806L25.9446 49.9584L26.3393 49.994C26.9649 50.0504 29.4212 49.6978 30.8205 49.3507C47.2733 45.2699 55.074 26.4924 46.4453 11.7396C46.2054 11.3292 46.0022 10.9937 45.994 10.994C45.9858 10.9943 45.5468 11.2734 45.0184 11.6141ZM18.9334 11.922C18.9334 11.9463 18.7561 12.2323 18.5392 12.5576C17.2159 14.5429 16.4226 17.2176 16.4206 19.6984L16.4201 20.6103H15.052H13.6841L13.7499 20.3064C14.2933 17.8038 14.9889 16.178 16.23 14.5108C17.0457 13.4151 18.9334 11.6072 18.9334 11.922ZM11.3934 23.0472C11.3934 23.3746 11.4653 23.567 11.6617 23.7657L11.9299 24.037H25.3807H38.8315L39.0998 23.7657C39.2962 23.567 39.368 23.3746 39.368 23.0472V22.6H25.3807H11.3934V23.0472ZM11.7212 24.9954C11.7212 25.4359 12.3466 27.5273 12.8888 28.9007C14.8107 33.7675 18.5256 39.9596 24.6751 48.5463C25.4411 49.616 25.3408 49.582 25.8145 48.9315C33.3262 38.6193 38.3534 29.6107 38.9888 25.3254L39.0651 24.8108H35.5152H31.9657L31.8242 25.3359C30.0577 31.8939 20.8537 31.9732 18.99 25.4464L18.8086 24.8108H15.265C12.0286 24.8108 11.7212 24.8268 11.7212 24.9954Z" fill="#2A85FF"/>
</svg>
