<svg width="75" height="75" viewBox="0 0 75 75" fill="none" xmlns="http://www.w3.org/2000/svg">
<rect width="75" height="75" rx="11" fill="#39C272" fill-opacity="0.15"/>
<path d="M39.0579 54.0547C38.4657 53.7439 37.8735 53.4289 37.2813 53.1181C35.8575 52.3663 34.438 51.6146 33.0142 50.8628C31.288 49.9514 29.5577 49.04 27.8315 48.1244C26.3448 47.339 24.8538 46.5537 23.367 45.7683C22.6446 45.3861 21.9264 44.9913 21.1956 44.6217C21.1872 44.6175 21.1746 44.6091 21.1662 44.6049C21.5148 45.2096 21.8592 45.8144 22.2078 46.4192V44.5334V40.0311V34.5838V29.8546C22.2078 29.0903 22.2204 28.3259 22.2078 27.5615V27.5321C21.1536 28.1369 20.0994 28.7417 19.0494 29.3465C19.6416 29.6615 20.2338 29.9723 20.826 30.2873C22.2498 31.0391 23.6693 31.7908 25.0931 32.5426C26.8193 33.454 28.5497 34.3696 30.2758 35.281C31.7626 36.0664 33.2535 36.8559 34.7404 37.6413C35.4627 38.0235 36.1809 38.4183 36.9117 38.7879C36.9201 38.7921 36.9327 38.8005 36.9411 38.8047C36.5925 38.1999 36.2481 37.5951 35.8995 36.9903V38.8719V43.37V48.8131V53.538C35.8995 54.3024 35.8911 55.0668 35.8995 55.8311V55.8605C35.8995 56.3981 36.1347 56.9651 36.5127 57.3473C36.8781 57.7127 37.4745 57.9857 37.9995 57.9605C38.5413 57.9353 39.1041 57.7589 39.4862 57.3473C39.8642 56.9357 40.0994 56.4317 40.0994 55.8605V53.979V49.4809V44.0378V39.3129C40.0994 38.5485 40.1078 37.7841 40.0994 37.0197V36.9903C40.0994 36.2763 39.7046 35.5203 39.0579 35.176C38.4657 34.861 37.8735 34.5502 37.2813 34.2352C35.8575 33.4834 34.438 32.7316 33.0142 31.9798C31.288 31.0684 29.5576 30.1529 27.8315 29.2415C26.3448 28.4561 24.8538 27.6665 23.367 26.8811C22.6446 26.4989 21.9222 26.1084 21.1956 25.7345C21.1872 25.7303 21.1746 25.7219 21.1662 25.7177C20.4942 25.3607 19.7173 25.3271 19.0453 25.7177C18.4069 26.0915 18.0037 26.7887 18.0037 27.5321V29.4179V33.9202V39.3676V44.0967C18.0037 44.8611 17.9953 45.6254 18.0037 46.3898V46.4192C18.0037 47.1332 18.3985 47.8934 19.0453 48.2336C19.6375 48.5444 20.2297 48.8594 20.8219 49.1702C22.2456 49.9219 23.6652 50.6737 25.089 51.4255C26.8152 52.3369 28.5455 53.2482 30.2716 54.1638C31.7584 54.9493 33.2494 55.7346 34.7362 56.52C35.4586 56.9022 36.1809 57.2928 36.9075 57.6666C36.9159 57.6708 36.9285 57.6792 36.9369 57.6834C37.4325 57.9438 38.0079 58.0446 38.5539 57.8934C39.0411 57.759 39.5703 57.381 39.8097 56.9275C40.0659 56.4403 40.1961 55.8481 40.0197 55.3105C39.8601 54.8023 39.5451 54.3108 39.058 54.0546L39.0579 54.0547Z" fill="#39C272"/>
<path d="M54.8368 44.6056C54.2446 44.9164 53.6524 45.2314 53.0602 45.5422C51.6364 46.294 50.2169 47.0457 48.7931 47.7975C47.0669 48.7089 45.3365 49.6203 43.6104 50.5359C42.1237 51.3213 40.6327 52.1066 39.1459 52.8921C38.4235 53.2743 37.6927 53.6439 36.9745 54.0387C36.9661 54.0429 36.9535 54.0513 36.9451 54.0555C37.9994 54.6603 39.0535 55.2651 40.1035 55.8698V53.9883V49.4902V44.047V39.3221C40.1035 38.5578 40.1161 37.7934 40.1035 37.029V36.9996C39.7549 37.6044 39.4105 38.2092 39.0619 38.814C39.6541 38.499 40.2463 38.1882 40.8385 37.8732C42.2623 37.1214 43.6818 36.3696 45.1056 35.6178C46.8318 34.7065 48.5622 33.7909 50.2883 32.8795C51.7751 32.0941 53.266 31.3045 54.7529 30.5192C55.4752 30.137 56.206 29.7632 56.9242 29.3726C56.9326 29.3684 56.9452 29.36 56.9536 29.3558C55.8994 28.751 54.8452 28.1462 53.7952 27.5414V29.4272V33.9295V39.3769V44.106C53.7952 44.8704 53.7868 45.6347 53.7952 46.3991V46.4285C53.7952 46.9661 54.0304 47.5331 54.4084 47.9153C54.7738 48.2807 55.3702 48.5537 55.8952 48.5285C56.437 48.5033 56.9998 48.3269 57.3819 47.9153C57.7599 47.5037 57.9951 46.9997 57.9951 46.4285V44.5427V40.0404V34.593V29.8639C57.9951 29.0995 58.0035 28.3352 57.9951 27.5708V27.5414C57.9951 26.8022 57.5919 26.1008 56.9536 25.727C56.2858 25.3364 55.5046 25.37 54.8326 25.727C54.2404 26.042 53.6482 26.3528 53.056 26.6678C51.6323 27.4196 50.2127 28.1714 48.7889 28.9232C47.0627 29.8345 45.3324 30.7501 43.6063 31.6615C42.1195 32.4469 40.6285 33.2365 39.1417 34.0218C38.4193 34.404 37.6843 34.7736 36.9704 35.1684C36.962 35.1726 36.9494 35.181 36.941 35.1852C36.2942 35.5254 35.8994 36.2814 35.8994 36.9996V38.8812V43.3793V48.8224V53.5473C35.8994 54.3117 35.891 55.0761 35.8994 55.8404V55.8698C35.8994 56.609 36.3026 57.3104 36.941 57.6842C37.6088 58.0748 38.3899 58.037 39.0619 57.6842C39.6541 57.3734 40.2463 57.0584 40.8385 56.7477C42.2623 55.9959 43.6818 55.2441 45.1056 54.4923C46.8318 53.5809 48.5622 52.6696 50.2883 51.754C51.775 50.9685 53.266 50.1832 54.7528 49.3978C55.4752 49.0156 56.2103 48.646 56.9242 48.2512C56.9326 48.247 56.9452 48.2386 56.9536 48.2344C57.4072 47.995 57.7852 47.4658 57.9196 46.9786C58.0582 46.4746 57.9952 45.8068 57.7096 45.3616C57.0712 44.3704 55.8784 44.0554 54.8368 44.6056L54.8368 44.6056Z" fill="#39C272"/>
<path d="M54.8352 25.722C54.243 26.037 53.6508 26.3478 53.0586 26.6628C51.6348 27.4146 50.2153 28.1664 48.7915 28.9182C47.0653 29.8295 45.335 30.7451 43.6088 31.6565C42.1221 32.4419 40.6311 33.2315 39.1443 34.0168C38.4219 34.399 37.6911 34.7728 36.9729 35.1634C36.9645 35.1676 36.9519 35.176 36.9435 35.1802H39.0645C38.4723 34.8652 37.8801 34.5545 37.2879 34.2395C35.8641 33.4877 34.4446 32.7359 33.0208 31.9841C31.2946 31.0727 29.5642 30.1571 27.8381 29.2458C26.3514 28.4603 24.8604 27.6708 23.3736 26.8854C22.6512 26.5032 21.933 26.1085 21.2022 25.7388C21.1938 25.7346 21.1812 25.7262 21.1728 25.722V29.3465C21.765 29.0357 22.3572 28.7208 22.9494 28.41C24.3732 27.6582 25.7927 26.9064 27.2165 26.1546C28.9427 25.2433 30.6731 24.3277 32.3992 23.4163C33.886 22.6309 35.3769 21.8455 36.8638 21.056C37.5861 20.6738 38.317 20.3 39.0351 19.9094C39.0435 19.9052 39.0561 19.8968 39.0645 19.8926H36.9435C37.5357 20.2034 38.1279 20.5183 38.7201 20.8291C40.1439 21.5809 41.5635 22.3327 42.9872 23.0845C44.7134 23.9958 46.4438 24.9114 48.1699 25.8228C49.6567 26.6082 51.1476 27.3936 52.6345 28.1831C53.3569 28.5653 54.0792 28.9559 54.8058 29.3297C54.8142 29.3339 54.8268 29.3423 54.8352 29.3465C55.3308 29.6069 55.9062 29.7077 56.4522 29.5565C56.9394 29.4221 57.4686 29.0441 57.708 28.5906C57.9642 28.1034 58.0944 27.5112 57.918 26.9736C57.7542 26.4654 57.4392 25.974 56.952 25.7178C56.3514 25.4028 55.7508 25.0836 55.1503 24.7686C53.7223 24.0168 52.2985 23.2608 50.8705 22.509C49.1359 21.5934 47.4013 20.6778 45.6668 19.7622C44.1842 18.9768 42.7016 18.1957 41.219 17.4103C40.505 17.0323 39.7953 16.6417 39.077 16.2805C38.6402 16.0579 38.2077 15.9529 37.7162 16.0201C37.4264 16.0579 37.1744 16.1461 36.9098 16.2847C36.83 16.3267 36.7544 16.3687 36.6746 16.4065C36.3051 16.5997 35.9355 16.7971 35.5658 16.9903C34.2176 17.7043 32.8653 18.4183 31.5171 19.128C29.7993 20.0352 28.0773 20.9466 26.3596 21.8538C24.8056 22.6728 23.2558 23.496 21.7019 24.315C20.8535 24.7644 20.0051 25.2137 19.1567 25.6589C19.1189 25.6799 19.0769 25.7009 19.0391 25.7219C17.6699 26.4443 17.6699 28.6241 19.0391 29.3465C19.6397 29.6657 20.2403 29.9807 20.8409 30.2998C22.2689 31.0558 23.6926 31.8076 25.1206 32.5636C26.8552 33.4792 28.5898 34.399 30.3244 35.3146C31.807 36.1 33.2895 36.8811 34.7721 37.6665C35.4861 38.0445 36.1959 38.4351 36.9141 38.8005C37.3509 39.0231 37.7835 39.1281 38.2749 39.0609C38.5647 39.0231 38.8167 38.9349 39.0813 38.7963C39.1611 38.7543 39.2367 38.7123 39.3165 38.6746C39.6861 38.4814 40.0557 38.284 40.4253 38.0908C41.7735 37.3768 43.1259 36.6628 44.4741 35.9488C46.1918 35.0416 47.9138 34.1302 49.6316 33.223C51.1855 32.404 52.7353 31.5808 54.2893 30.7618C55.1377 30.3125 55.986 29.8631 56.8344 29.4136C56.8722 29.3926 56.9142 29.3716 56.952 29.3506C57.4056 29.1112 57.7836 28.582 57.918 28.0948C58.0566 27.5908 57.9936 26.923 57.708 26.4778C57.0696 25.4867 55.8768 25.1716 54.8353 25.7218L54.8352 25.722Z" fill="#39C272"/>
<path d="M30.1133 34.0849C30.7055 33.7699 31.2977 33.4591 31.8899 33.1441C33.3137 32.3923 34.7332 31.6405 36.157 30.8887C37.8832 29.9774 39.6135 29.0618 41.3397 28.1504C42.8264 27.365 44.3174 26.5754 45.8042 25.7901C46.5266 25.4079 47.2616 25.0383 47.9756 24.6435C47.984 24.6393 47.9966 24.6309 48.005 24.6267C48.4585 24.3873 48.8365 23.8581 48.9709 23.3709C49.1095 22.8669 49.0465 22.1991 48.7609 21.7539C48.1225 20.7627 46.9297 20.4519 45.8882 21.0021C45.296 21.3171 44.7038 21.6279 44.1116 21.9428C42.6878 22.6946 41.2683 23.4464 39.8445 24.1982C38.1183 25.1096 36.3879 26.0252 34.6618 26.9365C33.1751 27.722 31.6841 28.5115 30.1973 29.2969C29.4749 29.6791 28.7399 30.0487 28.0259 30.4435C28.0175 30.4477 28.0049 30.4561 27.9965 30.4603C27.543 30.6997 27.165 31.2289 27.0306 31.7161C26.892 32.2201 26.955 32.8879 27.2406 33.3331C27.8748 34.3201 29.0718 34.6351 30.1133 34.0849Z" fill="#39C272"/>
</svg>
