<svg width="75" height="75" viewBox="0 0 75 75" fill="none" xmlns="http://www.w3.org/2000/svg">
<rect width="75" height="75" rx="11" fill="#F69133" fill-opacity="0.15"/>
<path d="M54.8375 45.6063C54.2453 45.9171 53.653 46.2321 53.0608 46.5429C51.637 47.2947 50.2175 48.0465 48.7936 48.7983C47.0674 49.7097 45.337 50.6211 43.6108 51.5367C42.1241 52.3221 40.633 53.1075 39.1462 53.8929C38.4238 54.2751 37.693 54.6447 36.9748 55.0396C36.9664 55.0438 36.9538 55.0522 36.9454 55.0564C37.9996 55.6612 39.0538 56.266 40.1038 56.8708V54.9892V50.491V45.0477V40.3227C40.1038 39.5583 40.1164 38.7939 40.1038 38.0295V38.0001C39.7552 38.6049 39.4108 39.2097 39.0623 39.8145C39.6545 39.4995 40.2467 39.1887 40.8389 38.8737C42.2627 38.1219 43.6823 37.3701 45.1061 36.6183C46.8323 35.7069 48.5627 34.7913 50.2889 33.8799C51.7757 33.0945 53.2667 32.3049 54.7535 31.5195C55.4759 31.1373 56.2068 30.7635 56.9249 30.3729C56.9333 30.3687 56.9459 30.3603 56.9543 30.3561C55.9001 29.7513 54.8459 29.1465 53.7959 28.5417V30.4275V34.93V40.3774V45.1067C53.7959 45.8711 53.7875 46.6354 53.7959 47.3998V47.4292C53.7959 47.9668 54.0311 48.5339 54.4091 48.916C54.7745 49.2814 55.3709 49.5544 55.8959 49.5292C56.4377 49.504 57.0005 49.3276 57.3827 48.916C57.7607 48.5044 57.9959 48.0004 57.9959 47.4292V45.5434V41.041V35.5935V30.8643C57.9959 30.0999 58.0043 29.3355 57.9959 28.5711V28.5417C57.9959 27.8025 57.5927 27.1011 56.9543 26.7273C56.2865 26.3367 55.5053 26.3703 54.8333 26.7273C54.2411 27.0423 53.6489 27.3531 53.0567 27.6681C51.6329 28.4199 50.2133 29.1717 48.7895 29.9235C47.0632 30.8349 45.3328 31.7505 43.6067 32.6619C42.1199 33.4473 40.6289 34.2369 39.142 35.0223C38.4196 35.4045 37.6846 35.7741 36.9706 36.1689C36.9622 36.1731 36.9496 36.1815 36.9412 36.1857C36.2944 36.5259 35.8997 37.2819 35.8997 38.0001V39.8817V44.3799V49.8232V54.5482C35.8997 55.3126 35.8913 56.077 35.8997 56.8414V56.8708C35.8997 57.61 36.3029 58.3114 36.9412 58.6852C37.609 59.0758 38.3902 59.038 39.0622 58.6852C39.6544 58.3744 40.2467 58.0594 40.8389 57.7486C42.2627 56.9968 43.6823 56.245 45.1061 55.4932C46.8323 54.5818 48.5627 53.6704 50.2889 52.7548C51.7757 51.9694 53.2667 51.184 54.7535 50.3986C55.4759 50.0164 56.211 49.6468 56.9249 49.2519C56.9333 49.2477 56.9459 49.2393 56.9543 49.2351C57.4079 48.9957 57.7859 48.4665 57.9203 47.9793C58.0589 47.4753 57.9959 46.8075 57.7103 46.3623C57.0719 45.3711 55.8791 45.056 54.8375 45.6062L54.8375 45.6063Z" fill="#F69133"/>
<path d="M54.8358 26.7222C54.2436 27.0373 53.6514 27.3481 53.0592 27.6631C51.6354 28.4149 50.2158 29.1667 48.792 29.9185C47.0657 30.8298 45.3353 31.7455 43.6092 32.6569C42.1224 33.4423 40.6314 34.2319 39.1445 35.0172C38.4221 35.3995 37.6913 35.7733 36.9731 36.1639C36.9647 36.1681 36.9521 36.1765 36.9437 36.1807H39.0647C38.4725 35.8657 37.8803 35.5549 37.2881 35.2399C35.8643 34.4881 34.4447 33.7363 33.0209 32.9845C31.2947 32.0731 29.5643 31.1575 27.8381 30.2461C26.3513 29.4606 24.8603 28.671 23.3735 27.8857C22.651 27.5035 21.9328 27.1087 21.2021 26.739C21.1937 26.7348 21.1811 26.7264 21.1727 26.7222V30.3469C21.7649 30.036 22.3571 29.721 22.9493 29.4103C24.3731 28.6585 25.7927 27.9067 27.2165 27.1549C28.9427 26.2435 30.6731 25.3279 32.3993 24.4165C33.8861 23.631 35.3771 22.8457 36.8639 22.0561C37.5863 21.6739 38.3172 21.3001 39.0353 20.9094C39.0437 20.9052 39.0563 20.8968 39.0647 20.8926H36.9437C37.5359 21.2034 38.1281 21.5184 38.7204 21.8292C40.1442 22.581 41.5637 23.3328 42.9876 24.0846C44.7138 24.996 46.4442 25.9116 48.1704 26.823C49.6571 27.6085 51.1482 28.3938 52.635 29.1834C53.3574 29.5656 54.0798 29.9562 54.8064 30.3301C54.8148 30.3343 54.8274 30.3427 54.8358 30.3469C55.3314 30.6073 55.9068 30.7081 56.4528 30.5569C56.94 30.4225 57.4692 30.0444 57.7087 29.5909C57.9649 29.1036 58.0951 28.5114 57.9187 27.9738C57.7549 27.4656 57.4399 26.9742 56.9527 26.718C56.3521 26.403 55.7514 26.0838 55.1509 25.7688C53.7228 25.017 52.299 24.261 50.871 23.5092C49.1364 22.5936 47.4018 21.6779 45.6671 20.7623C44.1845 19.9769 42.7019 19.1957 41.2193 18.4103C40.5053 18.0323 39.7955 17.6417 39.0773 17.2805C38.6405 17.0579 38.2079 16.9529 37.7164 17.0201C37.4266 17.0579 37.1746 17.1461 36.91 17.2847C36.8302 17.3267 36.7546 17.3687 36.6748 17.4065C36.3052 17.5997 35.9356 17.7971 35.566 17.9903C34.2177 18.7043 32.8654 19.4183 31.5171 20.1281C29.7993 21.0353 28.0773 21.9468 26.3595 22.8539C24.8055 23.6729 23.2557 24.4962 21.7017 25.3152C20.8533 25.7646 20.0049 26.214 19.1565 26.6592C19.1187 26.6802 19.0767 26.7012 19.0389 26.7222C17.6697 27.4446 17.6697 29.6244 19.0389 30.3468C19.6395 30.666 20.2401 30.981 20.8407 31.3002C22.2687 32.0562 23.6925 32.808 25.1205 33.564C26.8552 34.4796 28.5898 35.3994 30.3244 36.315C31.807 37.1005 33.2896 37.8816 34.7722 38.667C35.4862 39.045 36.196 39.4357 36.9143 39.8011C37.3511 40.0237 37.7837 40.1287 38.2751 40.0615C38.5649 40.0237 38.8169 39.9355 39.0815 39.7969C39.1613 39.7549 39.2369 39.7129 39.3167 39.6751C39.6863 39.4819 40.0559 39.2845 40.4256 39.0913C41.7738 38.3773 43.1262 37.6632 44.4744 36.9492C46.1922 36.042 47.9142 35.1306 49.632 34.2234C51.186 33.4044 52.7359 32.5812 54.2898 31.7622C55.1383 31.3128 55.9867 30.8634 56.8351 30.414C56.8729 30.393 56.9149 30.372 56.9527 30.351C57.4063 30.1115 57.7843 29.5823 57.9187 29.0951C58.0573 28.5911 57.9943 27.9233 57.7087 27.4781C57.0703 26.4869 55.8774 26.1718 54.8359 26.7221L54.8358 26.7222Z" fill="#F69133"/>
<path d="M30.1136 35.0852C30.7058 34.7702 31.298 34.4594 31.8902 34.1444C33.314 33.3926 34.7336 32.6408 36.1574 31.889C37.8837 30.9776 39.6141 30.062 41.3402 29.1506C42.827 28.3651 44.318 27.5756 45.8049 26.7902C46.5273 26.408 47.2623 26.0384 47.9763 25.6436C47.9847 25.6394 47.9973 25.631 48.0057 25.6268C48.4593 25.3874 48.8373 24.8581 48.9717 24.3709C49.1103 23.8669 49.0473 23.1991 48.7617 22.7539C48.1232 21.7627 46.9304 21.4519 45.8888 22.0021C45.2966 22.3171 44.7044 22.6279 44.1122 22.9429C42.6884 23.6947 41.2688 24.4465 39.845 25.1983C38.1188 26.1097 36.3884 27.0253 34.6622 27.9367C33.1754 28.7221 31.6844 29.5117 30.1976 30.2971C29.4752 30.6793 28.7401 31.0489 28.0262 31.4437C28.0178 31.4479 28.0052 31.4563 27.9968 31.4605C27.5432 31.6999 27.1652 32.2291 27.0308 32.7163C26.8922 33.2203 26.9552 33.8882 27.2408 34.3334C27.875 35.3204 29.072 35.6354 30.1136 35.0852Z" fill="#F69133"/>
<path d="M29 41.75C29 42.7165 28.2165 43.5 27.25 43.5H19.75C18.7835 43.5 18 42.7165 18 41.75C18 40.7835 18.7835 40 19.75 40H27.25C28.2165 40 29 40.7835 29 41.75Z" fill="#F69133"/>
<path d="M29 53.75C29 54.7165 28.2165 55.5 27.25 55.5H19.75C18.7835 55.5 18 54.7165 18 53.75C18 52.7835 18.7835 52 19.75 52H27.25C28.2165 52 29 52.7835 29 53.75Z" fill="#F69133"/>
<path d="M34 47.75C34 48.7165 33.2165 49.5 32.25 49.5H22.75C21.7835 49.5 21 48.7165 21 47.75C21 46.7835 21.7835 46 22.75 46H32.25C33.2165 46 34 46.7835 34 47.75Z" fill="#F69133"/>
</svg>
