<svg width="75" height="75" viewBox="0 0 75 75" fill="none" xmlns="http://www.w3.org/2000/svg">
<rect width="75" height="75" rx="11" fill="#F04D58" fill-opacity="0.15"/>
<path d="M54.8542 44.7831C54.2651 45.0741 53.676 45.369 53.0869 45.6599C51.6705 46.3638 50.2583 47.0677 48.842 47.7716C47.1247 48.6249 45.4034 49.4782 43.6862 50.3355C42.2072 51.0708 40.724 51.8061 39.2449 52.5415C38.5262 52.8994 37.7992 53.2454 37.0848 53.6151C37.0765 53.619 37.0639 53.6269 37.0556 53.6308C38.1043 54.1971 39.153 54.7633 40.1975 55.3296V53.5679V49.3564V44.2601V39.8362C40.1975 39.1206 40.21 38.4049 40.1975 37.6892V37.6617C39.8507 38.2279 39.5081 38.7942 39.1614 39.3604C39.7505 39.0655 40.3396 38.7745 40.9287 38.4796C42.3451 37.7757 43.7573 37.0718 45.1736 36.368C46.8909 35.5147 48.6122 34.6574 50.3294 33.8041C51.8084 33.0687 53.2916 32.3295 54.7707 31.5942C55.4894 31.2363 56.2164 30.8863 56.9308 30.5206C56.9391 30.5167 56.9517 30.5088 56.96 30.5049C55.9113 29.9386 54.8626 29.3724 53.8181 28.8061V30.5717V34.7872V39.8875V44.3153C53.8181 45.0309 53.8097 45.7466 53.8181 46.4623V46.4898C53.8181 46.9931 54.0521 47.524 54.4281 47.8818C54.7916 48.2239 55.3848 48.4795 55.9071 48.4559C56.4461 48.4324 57.006 48.2672 57.3861 47.8818C57.7622 47.4965 57.9961 47.0246 57.9961 46.4898V44.7242V40.5087V35.4085V30.9807C57.9961 30.265 58.0045 29.5493 57.9961 28.8336V28.8061C57.9961 28.114 57.595 27.4573 56.96 27.1073C56.2957 26.7416 55.5186 26.7731 54.8501 27.1073C54.261 27.4023 53.6718 27.6933 53.0827 27.9882C51.6664 28.6921 50.2542 29.3959 48.8378 30.0998C47.1206 30.9531 45.3992 31.8104 43.6821 32.6637C42.203 33.3991 40.7198 34.1383 39.2407 34.8736C38.5221 35.2315 37.7909 35.5775 37.0807 35.9472C37.0723 35.9511 37.0598 35.959 37.0514 35.9629C36.408 36.2814 36.0153 36.9892 36.0153 37.6617V39.4234V43.6349V48.7312V53.155C36.0153 53.8707 36.007 54.5864 36.0153 55.302V55.3296C36.0153 56.0217 36.4164 56.6784 37.0514 57.0283C37.7158 57.394 38.4929 57.3586 39.1614 57.0283C39.7505 56.7373 40.3396 56.4424 40.9287 56.1514C42.3451 55.4475 43.7573 54.7437 45.1736 54.0398C46.8909 53.1865 48.6122 52.3332 50.3294 51.4759C51.8084 50.7406 53.2916 50.0052 54.7707 49.2699C55.4893 48.912 56.2205 48.566 56.9308 48.1963C56.9391 48.1924 56.9516 48.1845 56.96 48.1806C57.4112 47.9564 57.7873 47.461 57.921 47.0048C58.0588 46.5329 57.9962 45.9077 57.7121 45.4908C57.077 44.5628 55.8904 44.2679 54.8542 44.783L54.8542 44.7831Z" fill="#F04D58"/>
<path d="M54.8526 27.1026C54.2635 27.3975 53.6744 27.6885 53.0853 27.9834C51.6689 28.6873 50.2567 29.3912 48.8404 30.0951C47.1231 30.9484 45.4018 31.8056 43.6846 32.6589C42.2056 33.3943 40.7224 34.1336 39.2433 34.8689C38.5246 35.2267 37.7976 35.5767 37.0832 35.9424C37.0749 35.9463 37.0623 35.9542 37.054 35.9581H39.1639C38.5748 35.6632 37.9857 35.3722 37.3966 35.0773C35.9802 34.3734 34.568 33.6695 33.1516 32.9657C31.4344 32.1123 29.7131 31.2551 27.9959 30.4018C26.5169 29.6664 25.0337 28.9272 23.5546 28.1918C22.8359 27.834 22.1215 27.4644 21.3945 27.1183C21.3862 27.1144 21.3736 27.1065 21.3653 27.1026V30.4961C21.9544 30.2052 22.5435 29.9102 23.1326 29.6193C24.549 28.9154 25.9612 28.2115 27.3775 27.5076C29.0948 26.6543 30.8161 25.7971 32.5333 24.9438C34.0123 24.2084 35.4955 23.4731 36.9746 22.7338C37.6932 22.376 38.4202 22.026 39.1347 21.6603C39.143 21.6563 39.1556 21.6485 39.1639 21.6445H37.054C37.6431 21.9355 38.2322 22.2304 38.8213 22.5214C40.2377 23.2253 41.6499 23.9292 43.0662 24.6331C44.7835 25.4864 46.5048 26.3436 48.222 27.1969C49.701 27.9323 51.1842 28.6676 52.6633 29.4069C53.382 29.7647 54.1006 30.1304 54.8234 30.4804C54.8317 30.4844 54.8443 30.4922 54.8526 30.4961C55.3456 30.74 55.918 30.8343 56.4612 30.6928C56.9459 30.5669 57.4723 30.213 57.7105 29.7883C57.9654 29.3322 58.0949 28.7777 57.9194 28.2744C57.7565 27.7986 57.4431 27.3384 56.9585 27.0986C56.361 26.8036 55.7635 26.5048 55.166 26.2099C53.7455 25.506 52.3291 24.7982 50.9085 24.0943C49.183 23.237 47.4574 22.3798 45.7318 21.5225C44.2569 20.7871 42.7821 20.0558 41.3072 19.3204C40.597 18.9665 39.8909 18.6008 39.1764 18.2626C38.7419 18.0542 38.3115 17.9559 37.8227 18.0188C37.5344 18.0542 37.2837 18.1368 37.0205 18.2665C36.9411 18.3059 36.8659 18.3452 36.7865 18.3806C36.4188 18.5615 36.0511 18.7463 35.6834 18.9272C34.3422 19.5957 32.9969 20.2642 31.6557 20.9287C29.9469 21.7781 28.2339 22.6315 26.525 23.4808C24.9792 24.2476 23.4374 25.0184 21.8915 25.7852C21.0476 26.2059 20.2036 26.6267 19.3596 27.0435C19.322 27.0632 19.2802 27.0828 19.2426 27.1025C17.8806 27.7788 17.8806 29.8197 19.2426 30.4961C19.8401 30.7949 20.4376 31.0899 21.035 31.3887C22.4556 32.0965 23.872 32.8004 25.2925 33.5083C27.0181 34.3655 28.7437 35.2267 30.4692 36.0839C31.9441 36.8193 33.4189 37.5506 34.8938 38.286C35.6041 38.6399 36.3102 39.0056 37.0247 39.3478C37.4592 39.5562 37.8895 39.6545 38.3784 39.5916C38.6667 39.5562 38.9174 39.4736 39.1806 39.3438C39.26 39.3045 39.3352 39.2652 39.4146 39.2298C39.7822 39.0489 40.1499 38.8641 40.5176 38.6832C41.8588 38.0147 43.2041 37.3462 44.5453 36.6777C46.2542 35.8283 47.9672 34.975 49.676 34.1256C51.2219 33.3588 52.7636 32.5881 54.3095 31.8213C55.1535 31.4005 55.9975 30.9798 56.8415 30.559C56.8791 30.5393 56.9209 30.5196 56.9585 30.5C57.4097 30.2758 57.7857 29.7804 57.9194 29.3242C58.0573 28.8523 57.9946 28.2271 57.7105 27.8102C57.0754 26.8822 55.8888 26.5873 54.8527 27.1024L54.8526 27.1026Z" fill="#F04D58"/>
<path d="M30.2593 34.9326C30.8484 34.6376 31.4375 34.3467 32.0266 34.0517C33.443 33.3478 34.8552 32.644 36.2716 31.9401C37.9888 31.0868 39.7101 30.2295 41.4273 29.3762C42.9063 28.6409 44.3895 27.9016 45.8686 27.1663C46.5873 26.8084 47.3185 26.4624 48.0287 26.0927C48.037 26.0888 48.0496 26.0809 48.0579 26.077C48.5092 25.8529 48.8852 25.3574 49.0189 24.9012C49.1568 24.4293 49.0941 23.8041 48.81 23.3872C48.1749 22.4592 46.9883 22.1682 45.9522 22.6834C45.3631 22.9783 44.7739 23.2693 44.1848 23.5642C42.7684 24.2681 41.3563 24.972 39.9399 25.6758C38.2227 26.5291 36.5013 27.3864 34.7842 28.2397C33.3051 28.9751 31.8219 29.7143 30.3428 30.4496C29.6242 30.8075 28.893 31.1535 28.1828 31.5232C28.1744 31.5271 28.1619 31.535 28.1535 31.5389C27.7023 31.7631 27.3263 32.2586 27.1926 32.7147C27.0547 33.1866 27.1174 33.8119 27.4015 34.2287C28.0324 35.1528 29.2232 35.4477 30.2593 34.9326Z" fill="#F04D58"/>
<path fill-rule="evenodd" clip-rule="evenodd" d="M18.1827 48.6829C18.1827 49.0807 18.3031 49.4622 18.5175 49.7435C18.7318 50.0248 19.0225 50.1829 19.3256 50.1829L33.0399 50.1829C33.343 50.1829 33.6337 50.0248 33.848 49.7435C34.0623 49.4622 34.1827 49.0807 34.1827 48.6829C34.1827 48.285 34.0623 47.9035 33.848 47.6222C33.6337 47.3409 33.343 47.1829 33.0399 47.1829L19.3256 47.1829C19.0225 47.1829 18.7318 47.3409 18.5175 47.6222C18.3031 47.9035 18.1827 48.285 18.1827 48.6829Z" fill="#F04D58"/>
<path fill-rule="evenodd" clip-rule="evenodd" d="M18.9855 48.2884C18.7295 48.5443 18.5643 48.87 18.5261 49.1938C18.4879 49.5176 18.5799 49.8129 18.7819 50.0149L23.3508 54.5838C23.5528 54.7858 23.8481 54.8778 24.1719 54.8396C24.4957 54.8014 24.8214 54.6362 25.0774 54.3803C25.3333 54.1243 25.4985 53.7986 25.5367 53.4748C25.5749 53.151 25.4829 52.8557 25.2809 52.6537L20.712 48.0848C20.5101 47.8828 20.2147 47.7908 19.8909 47.829C19.5671 47.8672 19.2414 48.0324 18.9855 48.2884Z" fill="#F04D58"/>
<path fill-rule="evenodd" clip-rule="evenodd" d="M18.9754 49.0673C19.234 49.3259 19.5623 49.4937 19.888 49.5338C20.2137 49.5739 20.5101 49.483 20.712 49.281L25.281 44.7121C25.4829 44.5101 25.5739 44.2137 25.5338 43.888C25.4937 43.5623 25.3259 43.234 25.0673 42.9754C24.8086 42.7167 24.4804 42.5489 24.1547 42.5088C23.829 42.4688 23.5325 42.5597 23.3306 42.7617L18.7617 47.3306C18.5597 47.5326 18.4688 47.829 18.5088 48.1547C18.5489 48.4804 18.7167 48.8086 18.9754 49.0673Z" fill="#F04D58"/>
</svg>
